<svg xmlns="http://www.w3.org/2000/svg" viewBox="0 0 512 512">
  <defs><linearGradient id="g" x1="0" y1="0" x2="1" y2="1"><stop stop-color="#0a5443"/><stop offset="1" stop-color="#021f19"/></linearGradient></defs>
  <rect width="512" height="512" rx="112" fill="url(#g)"/>
  <circle cx="256" cy="256" r="154" fill="#ffffff"/>
  <path d="M148 256c0-60 48-108 108-108s108 48 108 108-48 108-108 108-108-48-108-108Z" fill="#e9f6e4"/>
  <path d="M183 256c0-40 33-73 73-73s73 33 73 73-33 73-73 73-73-33-73-73Z" fill="#3e9c31"/>
  <path d="M217 221h78v22h-54v23h46v22h-46v51h-24V221Z" fill="#ffffff"/>
</svg>